<?xml version="1.0" standalone="no"?><!DOCTYPE svg PUBLIC "-//W3C//DTD SVG 1.1//EN" "http://www.w3.org/Graphics/SVG/1.1/DTD/svg11.dtd"><svg t="1667633878688" class="icon" viewBox="0 0 1024 1024" version="1.1" xmlns="http://www.w3.org/2000/svg" p-id="7051" width="32" height="32" xmlns:xlink="http://www.w3.org/1999/xlink"><path d="M970.285714 53.714286q53.714286 53.714286 53.714286 129.428571T970.285714 312l-128.571428 127.428571 59.428571 59.428572q5.714286 5.714286 5.714286 13.142857t-5.714286 13.142857l-120 120q-5.714286 5.714286-13.142857 5.714286t-13.142857-5.714286l-60-60-344.571429 344.571429q-21.142857 21.142857-51.428571 21.142857H182.857143L36.571429 1024l-36.571429-36.571429 73.142857-146.285714v-116q0-30.285714 21.142857-51.428571l344.571429-344.571429-60-60q-5.714286-5.714286-5.714286-13.142857t5.714286-13.142857l120-120q5.714286-5.714286 13.142857-5.714286t13.142857 5.714286l59.428572 59.428571 127.428571-128.571428q53.142857-53.714286 128.857143-53.714286T970.285714 53.714286zM292.571429 841.142857l329.142857-329.142857-109.714286-109.714286-329.142857 329.142857v109.714286h109.714286z" p-id="7052" fill="#E3B340"></path></svg>